<?xml version="1.0" standalone="no"?>
<!DOCTYPE svg PUBLIC "-//W3C//DTD SVG 20010904//EN"
 "http://www.w3.org/TR/2001/REC-SVG-20010904/DTD/svg10.dtd">
<svg version="1.0" xmlns="http://www.w3.org/2000/svg"
 width="512.000000pt" height="512.000000pt" viewBox="0 0 512.000000 512.000000"
 preserveAspectRatio="xMidYMid meet">

<g transform="translate(0.000000,512.000000) scale(0.100000,-0.100000)"
fill="#000000" stroke="none">
<path d="M2480 4820 l0 -300 80 0 80 0 0 300 0 300 -80 0 -80 0 0 -300z"/>
<path d="M910 4745 l0 -75 -75 0 -75 0 0 -75 0 -75 75 0 75 0 0 -75 0 -75 75
0 75 0 0 75 0 75 75 0 75 0 0 75 0 75 -75 0 -75 0 0 75 0 75 -75 0 -75 0 0
-75z"/>
<path d="M4095 4210 l-210 -210 50 -50 c27 -27 54 -50 60 -50 5 0 104 93 218
208 l207 207 -53 53 c-29 28 -55 52 -57 52 -3 0 -100 -94 -215 -210z"/>
<path d="M2165 4326 c-181 -53 -382 -131 -487 -188 -302 -166 -565 -440 -726
-756 -49 -96 -114 -259 -126 -317 -7 -30 -6 -31 60 -48 37 -10 70 -15 74 -10
4 4 21 51 39 103 113 334 349 636 650 834 99 65 240 141 247 133 3 -3 -11 -31
-30 -63 -85 -146 -150 -340 -182 -542 -22 -143 -15 -403 16 -547 66 -310 208
-574 425 -790 133 -133 251 -218 410 -296 200 -97 354 -140 582 -160 284 -26
574 32 839 166 l122 62 -18 -41 c-58 -134 -193 -327 -315 -450 -449 -455
-1108 -618 -1701 -421 -356 118 -678 371 -881 693 -148 236 -236 501 -250 760
l-6 112 -75 0 -75 0 6 -117 c19 -397 199 -804 495 -1115 486 -510 1198 -693
1862 -478 132 43 377 167 489 247 184 132 365 326 475 510 92 154 198 417 265
661 l20 74 -29 -24 c-15 -12 -74 -61 -130 -107 -249 -204 -456 -312 -711 -367
-128 -28 -407 -26 -549 5 -545 117 -965 525 -1095 1064 -66 270 -49 565 46
805 67 169 173 340 320 517 113 136 113 135 103 135 -5 -1 -76 -20 -159 -44z"/>
<path d="M2460 4326 c0 -24 3 -58 6 -75 l7 -31 86 0 c549 -1 1072 -281 1373
-735 175 -263 264 -536 277 -845 l6 -155 73 -3 72 -3 1 43 c4 285 -41 522
-148 764 -230 525 -701 915 -1254 1038 -138 30 -275 46 -404 46 l-95 0 0 -44z"/>
<path d="M310 4135 l0 -75 75 0 75 0 0 75 0 75 -75 0 -75 0 0 -75z"/>
<path d="M776 2828 c-4 -29 -9 -65 -12 -79 -5 -26 -4 -26 66 -33 40 -4 74 -5
77 -3 7 7 23 129 18 138 -3 3 -30 10 -61 14 -32 4 -63 9 -70 12 -8 3 -14 -13
-18 -49z"/>
<path d="M160 2715 l0 -75 -80 0 -80 0 0 -75 0 -75 80 0 80 0 0 -75 0 -75 75
0 75 0 0 75 0 75 75 0 75 0 0 75 0 75 -75 0 -75 0 0 75 0 75 -75 0 -75 0 0
-75z"/>
<path d="M4510 2565 l0 -75 305 0 305 0 0 75 0 75 -305 0 -305 0 0 -75z"/>
<path d="M3942 1197 l-52 -52 213 -213 212 -212 53 53 52 52 -213 213 -212
212 -53 -53z"/>
<path d="M752 988 l3 -73 75 0 75 0 3 73 3 72 -81 0 -81 0 3 -72z"/>
<path d="M460 685 l0 -75 -75 0 -75 0 0 -75 0 -75 75 0 75 0 0 -75 0 -75 75 0
75 0 0 75 0 75 75 0 75 0 0 75 0 75 -75 0 -75 0 0 75 0 75 -75 0 -75 0 0 -75z"/>
<path d="M2480 300 l0 -300 80 0 80 0 0 300 0 300 -80 0 -80 0 0 -300z"/>
</g>
</svg>
